<svg width="1081" height="1081" viewBox="0 0 1081 1081" fill="none" xmlns="http://www.w3.org/2000/svg">
<path d="M581.559 799.229C564.693 887.069 527.825 966.098 471.515 1037.45C469.575 1039.91 467.218 1042.09 465.027 1044.37C461.206 1048.36 456.41 1049.57 451.043 1047.9C445.654 1046.23 442.691 1042.31 442.065 1037.26C441.524 1032.89 441.617 1028.45 441.616 1024.05C441.608 794.975 441.621 565.904 441.624 336.832C441.624 318.978 441.574 318.517 421.931 319.266C368.453 321.305 317.294 312.717 268.767 291.706C260.65 288.191 253.604 288.637 245.919 292.887C215.115 309.923 183.655 309.135 152.321 294.326C114.04 276.235 75.9667 257.767 37.8799 239.327C28.0372 234.562 24.68 227.772 28.9368 221.499C34.75 212.932 42.3691 215.368 50.0865 219.111C86.859 236.946 123.542 254.942 160.487 272.469C184.848 284.026 209.458 285.866 234.115 272.421C249.18 264.206 264.771 264.569 280.614 271.179C317.512 286.573 356.187 295.612 396.698 296.995C409.132 297.42 421.641 295.954 434.118 295.407C439.085 295.188 441.439 292.813 441.444 288.301C441.455 277.782 441.435 267.262 441.5 256.743C441.533 251.289 438.744 249.812 433.072 250.555C389.976 256.202 348.265 250.72 307.29 237.728C285.195 230.722 271.152 217.924 266.234 196.573C261.61 176.495 248.048 162.549 228.193 154.391C190.92 139.076 152.507 126.353 114.26 113.282C110.123 111.868 105.982 110.456 101.907 108.902C93.9869 105.883 89.8202 100.664 93.3088 92.8457C96.6363 85.3891 103.458 84.7454 110.893 87.3296C132.563 94.8622 154.279 102.288 175.833 110.094C197.035 117.773 218.625 124.525 239.286 133.504C265.158 144.748 283.004 162.389 289.142 188.317C292.849 203.977 302.998 211.974 318.487 216.68C354.553 227.638 391.147 233.089 429.19 228.419C438.876 227.23 441.577 223.377 441.902 214.554C443.918 159.796 459.514 109.507 501.147 68.3354C538.647 31.253 584.507 8.99512 639.054 2.0192C663.793 -1.14456 688.207 -0.884724 711.831 7.46845C759.754 24.4135 781.359 65.5307 767.708 112.065C759.317 140.666 742.819 164.748 721.424 186.263C680.607 227.309 632.597 259.298 577.409 281.845C567.861 285.746 566 290.148 567.422 299.661C574.393 346.288 580.391 393.047 583.809 440.039C585.673 465.667 587.252 491.313 589.144 519.716C599.872 509.984 609.348 501.819 618.296 493.188C644.97 467.46 670.346 440.595 700.618 418.156C741.939 387.526 787.701 368.726 841.704 372.999C896.007 377.296 937.346 401.786 965.123 445.075C986.336 478.134 992.818 514.909 993.837 552.511C994.812 588.462 994.338 624.453 994.077 660.424C993.907 683.914 1002.95 702.882 1022.17 718.697C1054.61 745.401 1070.85 780.25 1077.12 819.28C1085.5 871.42 1076.18 920.237 1041.35 963.039C1015.73 994.515 982.597 1014.03 937.88 1011.56C907.355 1009.87 881.982 997.794 861.341 977.514C827.65 944.409 811.895 904.441 809.773 859.434C807.92 820.133 816.641 783.326 839.046 749.551C847.194 737.27 857.587 726.768 869.009 717.127C885.938 702.838 894.856 685.685 894.509 664.116C893.839 622.385 894.167 580.641 893.568 538.909C893.347 523.472 888.611 508.703 881.099 494.964C863.041 461.934 820.885 455.172 791.222 480.223C777.244 492.027 766.693 506.302 756.374 520.785C731.348 555.908 708.294 592.361 676.343 622.857C654.857 643.365 630.229 659.767 601.224 669.946C592.579 672.98 589.707 677.501 590.09 685.88C591.813 723.63 587.796 761.068 581.559 799.229ZM516.837 87.1153C481.332 124.037 467.443 168.354 467.146 216.477C466.517 318.603 466.95 420.735 466.948 522.865C466.948 550.67 466.951 550.766 497.282 550.646C513.785 550.581 530.323 551.099 546.356 545.907C556.649 542.573 562.274 536.664 562.427 526.523C562.499 521.774 562.777 517.02 562.628 512.278C561.403 473.307 558.296 434.459 554.312 395.645C550.195 355.533 545.126 315.542 538.414 275.738C533.675 247.63 528.26 219.69 529.334 190.976C530.652 155.712 543.232 125.11 571.783 101.355C597.204 80.2036 627.3 68.2668 662.086 69.2318C685.485 69.881 696.374 84.7294 689.804 105.283C684.76 121.061 673.826 133.446 662.319 145.358C634.801 173.845 601.016 194.78 565.13 213.112C561.415 215.01 555.274 215.928 555.755 220.676C557.158 234.522 557.893 248.6 563.147 262.267C566.165 261.253 567.943 260.814 569.568 260.086C612.866 240.701 652.748 216.569 687.276 185.543C711.145 164.095 731.741 140.246 741.969 110.215C754.564 73.2313 740.253 42.2975 704.657 29.8001C693.973 26.0489 682.792 23.8008 671.322 23.769C610.23 23.5991 559.107 44.5236 516.837 87.1153ZM736.886 422.594C708.771 440.32 684.752 462.21 661.484 484.972C634.512 511.356 608.704 539.045 575.18 558.848C550.781 573.26 546.859 587.278 562.9 609.503C570.258 619.699 577.963 629.736 581.92 641.486C584.74 649.861 589.457 649.856 596.768 646.793C618.451 637.706 637.581 625.353 654.498 609.918C685.423 581.704 707.087 547.257 730.644 514.072C743.142 496.467 755.656 478.865 772.403 464.283C814.99 427.201 877.574 436.971 904.044 484.975C913.172 501.528 917.506 519.466 918.97 537.796C922.052 576.409 920.817 615.118 920.754 653.794C920.706 683.229 914.461 710.888 889.397 731.392C850.974 762.825 834.94 802.745 834.759 849.047C834.586 893.241 848.005 932.911 883.183 964.225C918.675 995.82 962.362 997.17 1000.81 968.864C1018.46 955.875 1031.94 939.537 1039.35 920.064C1066.14 849.638 1060.91 784.72 998.724 730.213C977.878 711.94 968.562 688.985 968.648 662.538C968.767 626.222 969.165 589.897 968.429 553.594C967.891 527.091 964.433 500.849 953.441 475.929C931.372 425.895 885.58 396.647 829.483 395.821C795.787 395.324 766.072 405.46 736.886 422.594ZM471.378 919.2C477.152 926.107 484.089 931.21 493.975 927.297C507.717 921.858 518.745 914.261 524.809 900.26C555.586 829.203 566.279 755.181 564.734 679.258C564.39 662.325 559.25 646.22 548.928 632.226C536.113 614.85 524.708 597.401 529.294 573.801C512.776 573.801 497.459 573.697 482.145 573.831C468.195 573.953 466.975 575.105 466.973 587.753C466.954 692.208 466.986 796.663 466.943 901.117C466.94 906.96 467.35 912.634 471.378 919.2ZM665.657 100.168C667.721 90.4089 659.462 92.5749 654.426 92.5661C613.249 92.4945 570.78 123.438 559.562 161.643C556.938 170.577 553.686 179.624 556.149 189.896C568.219 185.504 578.363 179.387 588.221 173.056C618.529 153.594 647.672 132.95 665.657 100.168Z" fill="#27343D" stroke="#27343D" stroke-width="0.3"/>
<path d="M40.4613 120.411C36.8721 114.592 37.6983 110.041 42.4938 106.107C46.8469 102.536 51.6938 102.296 56.8368 104.35C102.592 122.623 148.375 140.838 194.063 159.253C201.682 162.325 205.758 167.887 201.94 175.629C198.587 182.427 192.188 183.446 185.219 180.664C138.793 162.131 92.4055 143.515 46.0502 124.832C44.1192 124.053 42.6317 122.338 40.4613 120.411Z" fill="#27343D"/>
<path d="M87.9593 221.751C64.0269 211.26 40.817 201.143 17.6526 190.938C7.56056 186.492 3.8997 180.196 7.8956 173.572C12.8393 165.378 20.1632 166.601 27.8529 169.96C70.6136 188.64 113.397 207.277 156.166 225.94C157.822 226.663 159.503 227.388 161.019 228.324C167.052 232.054 170.925 236.942 167.439 243.716C163.948 250.498 157.187 251.291 150.501 248.722C138.658 244.172 127.097 238.992 115.472 233.968C106.505 230.093 97.6212 226.054 87.9593 221.751Z" fill="#27343D"/>
<path d="M60.5236 145.133C97.1208 160.263 132.954 175.135 168.77 190.04C172.447 191.57 176.248 192.984 179.605 195C185.406 198.483 188.565 203.445 185.209 209.724C181.795 216.113 175.936 218.27 168.63 215.265C150.188 207.68 131.818 199.944 113.404 192.302C93.3117 183.962 73.1256 175.811 53.1289 167.281C42.3654 162.689 39.3039 154.32 45.5271 148.118C49.4791 144.179 54.4411 143.824 60.5236 145.133Z" fill="#27343D"/>
<path d="M467.302 1071.06C463.468 1078.93 457.552 1081.87 449.37 1079.17C442.987 1077.07 440.902 1072.09 441.604 1066.19C442.365 1059.8 447.201 1056.54 453.439 1056.31C463.429 1055.95 467.75 1061.44 467.302 1071.06Z" fill="#F17619"/>
<path d="M70.9504 97.1103C64.6649 92.7986 62.2341 87.7586 65.332 81.7444C68.3392 75.9065 73.8547 73.2882 80.6942 75.4017C88.0068 77.6615 91.2161 83.1273 88.8085 89.7309C86.1906 96.9113 80.4417 100.574 70.9504 97.1103Z" fill="#F17619"/>
<path d="M38.0299 137.688C41.9664 144.424 42.0503 149.997 35.1802 154.101C29.6221 157.421 24.0637 157.015 19.2957 152.76C14.8017 148.749 14.5837 143.851 17.4032 138.936C21.3796 132.004 28.6095 131.39 38.0299 137.688Z" fill="#F17619"/>
<path d="M874.045 923.397C843.714 869.845 849.296 802.981 887.201 760.739C919.484 724.76 968.952 723.82 1001.17 759.953C1032.67 795.282 1039.18 836.731 1030.93 880.829C1026.25 905.804 1015.52 928.222 996.41 946.642C965.882 976.063 922.42 975.574 892.336 945.898C885.534 939.189 879.242 932.148 874.045 923.397Z" fill="#F17619"/>
<path d="M21.529 213.895C27.2341 223.724 26.0108 229.84 18.1215 233.15C10.6959 236.264 5.38031 233.361 1.70463 227.357C-0.894267 223.112 -0.609161 218.671 3.16618 215.216C8.35887 210.464 14.3751 209.043 21.529 213.895Z" fill="#F17619"/>
</svg>
